<?xml version="1.0" encoding="UTF-8"?>
<svg xmlns="http://www.w3.org/2000/svg" xmlns:xlink="http://www.w3.org/1999/xlink" width="854" height="480" viewBox="0 0 854 480">
<defs>
<g>
<g id="glyph-0-0">
<path d="M 0.324219 -2.167969 C 0.320312 -2.617188 0.414062 -3.074219 0.613281 -3.539062 C 0.71875 -3.753906 0.855469 -3.929688 1.03125 -4.070312 C 1.207031 -4.203125 1.429688 -4.269531 1.699219 -4.277344 C 1.964844 -4.273438 2.191406 -4.203125 2.378906 -4.070312 C 2.554688 -3.929688 2.691406 -3.753906 2.792969 -3.539062 C 2.984375 -3.074219 3.078125 -2.617188 3.074219 -2.167969 C 3.078125 -1.648438 2.988281 -1.15625 2.808594 -0.6875 C 2.714844 -0.46875 2.578125 -0.292969 2.394531 -0.152344 C 2.214844 -0.015625 1.984375 0.0546875 1.699219 0.0585938 C 1.417969 0.0546875 1.1875 -0.015625 1.015625 -0.152344 C 0.835938 -0.292969 0.695312 -0.46875 0.59375 -0.6875 C 0.492188 -0.914062 0.421875 -1.15625 0.386719 -1.417969 C 0.347656 -1.671875 0.324219 -1.921875 0.324219 -2.167969 Z M 2.484375 -2.28125 C 2.484375 -2.441406 2.480469 -2.628906 2.472656 -2.839844 C 2.460938 -3.050781 2.429688 -3.25 2.378906 -3.445312 C 2.332031 -3.640625 2.253906 -3.800781 2.144531 -3.929688 C 2.035156 -4.054688 1.886719 -4.121094 1.699219 -4.125 C 1.519531 -4.121094 1.375 -4.054688 1.265625 -3.929688 C 1.160156 -3.800781 1.078125 -3.640625 1.027344 -3.445312 C 0.976562 -3.25 0.945312 -3.050781 0.933594 -2.839844 C 0.917969 -2.628906 0.910156 -2.441406 0.910156 -2.28125 Z M 0.910156 -2.128906 C 0.910156 -1.921875 0.917969 -1.703125 0.933594 -1.472656 C 0.945312 -1.238281 0.976562 -1.015625 1.019531 -0.804688 C 1.070312 -0.601562 1.148438 -0.433594 1.253906 -0.296875 C 1.363281 -0.160156 1.511719 -0.09375 1.699219 -0.09375 C 1.890625 -0.09375 2.042969 -0.160156 2.15625 -0.296875 C 2.265625 -0.433594 2.34375 -0.601562 2.390625 -0.804688 C 2.4375 -1.015625 2.464844 -1.238281 2.472656 -1.472656 C 2.480469 -1.703125 2.484375 -1.921875 2.484375 -2.128906 Z "/>
</g>
</g>
</defs>
<g fill="rgb(100%, 100%, 100%)" fill-opacity="1">
<use xlink:href="#glyph-0-0" x="30" y="24.583008"/>
</g>
</svg>
